<svg width="358" height="88" viewBox="0 0 358 88" fill="none" xmlns="http://www.w3.org/2000/svg">
<g filter="url(#filter0_d_0_238)">
<rect x="9" y="5" width="340" height="70" rx="10" fill="white"/>
</g>
<rect x="182" y="12" width="160" height="56" rx="10" fill="#54BD95"/>
<path d="M48.4382 47V33.9091H53.2322C54.1612 33.9091 54.9304 34.0625 55.5398 34.3693C56.1491 34.6719 56.6051 35.0831 56.9077 35.603C57.2102 36.1186 57.3615 36.7003 57.3615 37.348C57.3615 37.8935 57.2614 38.3537 57.0611 38.7287C56.8608 39.0994 56.5923 39.3977 56.2557 39.6236C55.9233 39.8452 55.5568 40.0071 55.1562 40.1094V40.2372C55.5909 40.2585 56.0149 40.3991 56.4283 40.6591C56.8459 40.9148 57.1911 41.2791 57.4638 41.7521C57.7365 42.2251 57.8729 42.8004 57.8729 43.478C57.8729 44.147 57.7152 44.7479 57.3999 45.2805C57.0888 45.8089 56.6072 46.2287 55.9553 46.5398C55.3033 46.8466 54.4702 47 53.456 47H48.4382ZM50.4134 45.3061H53.2642C54.2102 45.3061 54.8878 45.1229 55.2969 44.7564C55.706 44.3899 55.9105 43.9318 55.9105 43.3821C55.9105 42.9687 55.8061 42.5895 55.5973 42.2443C55.3885 41.8991 55.0902 41.6243 54.7024 41.4197C54.3189 41.2152 53.8629 41.1129 53.3345 41.1129H50.4134V45.3061ZM50.4134 39.5724H53.0597C53.5028 39.5724 53.9013 39.4872 54.255 39.3168C54.6129 39.1463 54.8963 38.9077 55.1051 38.6009C55.3182 38.2898 55.4247 37.9233 55.4247 37.5014C55.4247 36.9602 55.2351 36.5064 54.8558 36.1399C54.4766 35.7734 53.8949 35.5902 53.1108 35.5902H50.4134V39.5724ZM60.0621 47V37.1818H61.9734V47H60.0621ZM61.0273 35.6669C60.695 35.6669 60.4094 35.5561 60.1708 35.3345C59.9364 35.1087 59.8192 34.8402 59.8192 34.5291C59.8192 34.2138 59.9364 33.9453 60.1708 33.7237C60.4094 33.4979 60.695 33.3849 61.0273 33.3849C61.3597 33.3849 61.6431 33.4979 61.8775 33.7237C62.1161 33.9453 62.2354 34.2138 62.2354 34.5291C62.2354 34.8402 62.1161 35.1087 61.8775 35.3345C61.6431 35.5561 61.3597 35.6669 61.0273 35.6669ZM66.4558 33.9091V47H64.5446V33.9091H66.4558ZM73.9441 33.9091H76.3411L80.5087 44.0852H80.6621L84.8297 33.9091H87.2267V47H85.3475V37.527H85.226L81.3652 46.9808H79.8056L75.9448 37.5206H75.8233V47H73.9441V33.9091ZM94.0806 47.1982C93.1602 47.1982 92.3569 46.9872 91.6708 46.5653C90.9847 46.1435 90.4521 45.5533 90.0728 44.7947C89.6935 44.0362 89.5039 43.1499 89.5039 42.1357C89.5039 41.1172 89.6935 40.2266 90.0728 39.4638C90.4521 38.701 90.9847 38.1087 91.6708 37.6868C92.3569 37.2649 93.1602 37.054 94.0806 37.054C95.0011 37.054 95.8043 37.2649 96.4904 37.6868C97.1765 38.1087 97.7092 38.701 98.0884 39.4638C98.4677 40.2266 98.6573 41.1172 98.6573 42.1357C98.6573 43.1499 98.4677 44.0362 98.0884 44.7947C97.7092 45.5533 97.1765 46.1435 96.4904 46.5653C95.8043 46.9872 95.0011 47.1982 94.0806 47.1982ZM94.087 45.5938C94.6836 45.5938 95.1779 45.4361 95.57 45.1207C95.962 44.8054 96.2518 44.3857 96.4393 43.8615C96.631 43.3374 96.7269 42.7599 96.7269 42.1293C96.7269 41.5028 96.631 40.9276 96.4393 40.4034C96.2518 39.875 95.962 39.451 95.57 39.1314C95.1779 38.8118 94.6836 38.652 94.087 38.652C93.4862 38.652 92.9876 38.8118 92.5913 39.1314C92.1992 39.451 91.9073 39.875 91.7156 40.4034C91.5281 40.9276 91.4343 41.5028 91.4343 42.1293C91.4343 42.7599 91.5281 43.3374 91.7156 43.8615C91.9073 44.3857 92.1992 44.8054 92.5913 45.1207C92.9876 45.4361 93.4862 45.5938 94.087 45.5938ZM102.702 41.1705V47H100.791V37.1818H102.625V38.7798H102.747C102.972 38.2599 103.326 37.8423 103.808 37.527C104.294 37.2116 104.905 37.054 105.642 37.054C106.311 37.054 106.897 37.1946 107.4 37.4759C107.903 37.7528 108.293 38.1662 108.57 38.7159C108.847 39.2656 108.985 39.9453 108.985 40.755V47H107.074V40.9851C107.074 40.2734 106.889 39.7173 106.518 39.3168C106.147 38.9119 105.638 38.7095 104.99 38.7095C104.547 38.7095 104.153 38.8054 103.808 38.9972C103.467 39.1889 103.196 39.4702 102.996 39.8409C102.8 40.2074 102.702 40.6506 102.702 41.1705ZM116.132 37.1818V38.7159H110.769V37.1818H116.132ZM112.207 34.8295H114.118V44.1172C114.118 44.4879 114.173 44.767 114.284 44.9545C114.395 45.1378 114.538 45.2635 114.713 45.3317C114.892 45.3956 115.085 45.4276 115.294 45.4276C115.448 45.4276 115.582 45.4169 115.697 45.3956C115.812 45.3743 115.901 45.3572 115.965 45.3445L116.311 46.9233C116.2 46.9659 116.042 47.0085 115.838 47.0511C115.633 47.098 115.377 47.1236 115.07 47.1278C114.568 47.1364 114.099 47.0469 113.664 46.8594C113.23 46.6719 112.878 46.3821 112.61 45.9901C112.341 45.598 112.207 45.1058 112.207 44.5135V34.8295ZM120.368 41.1705V47H118.457V33.9091H120.342V38.7798H120.464C120.694 38.2514 121.045 37.8317 121.518 37.5206C121.991 37.2095 122.609 37.054 123.372 37.054C124.045 37.054 124.634 37.1925 125.136 37.4695C125.643 37.7464 126.036 38.1598 126.312 38.7095C126.594 39.255 126.734 39.9368 126.734 40.755V47H124.823V40.9851C124.823 40.2649 124.638 39.7067 124.267 39.3104C123.896 38.9098 123.381 38.7095 122.72 38.7095C122.268 38.7095 121.864 38.8054 121.506 38.9972C121.152 39.1889 120.873 39.4702 120.668 39.8409C120.468 40.2074 120.368 40.6506 120.368 41.1705ZM131.196 33.9091V47H129.285V33.9091H131.196ZM134.975 50.6818C134.69 50.6818 134.43 50.6584 134.195 50.6115C133.961 50.5689 133.786 50.522 133.671 50.4709L134.132 48.9048C134.481 48.9986 134.792 49.0391 135.065 49.0263C135.338 49.0135 135.578 48.9112 135.787 48.7195C136 48.5277 136.188 48.2145 136.35 47.7798L136.586 47.1278L132.994 37.1818H135.039L137.526 44.8011H137.628L140.115 37.1818H142.166L138.12 48.3104C137.933 48.8217 137.694 49.2543 137.404 49.608C137.115 49.9659 136.769 50.2344 136.369 50.4134C135.968 50.5923 135.504 50.6818 134.975 50.6818Z" fill="#191A15"/>
<path d="M223.438 47V33.9091H228.232C229.161 33.9091 229.93 34.0625 230.54 34.3693C231.149 34.6719 231.605 35.0831 231.908 35.603C232.21 36.1186 232.362 36.7003 232.362 37.348C232.362 37.8935 232.261 38.3537 232.061 38.7287C231.861 39.0994 231.592 39.3977 231.256 39.6236C230.923 39.8452 230.557 40.0071 230.156 40.1094V40.2372C230.591 40.2585 231.015 40.3991 231.428 40.6591C231.846 40.9148 232.191 41.2791 232.464 41.7521C232.737 42.2251 232.873 42.8004 232.873 43.478C232.873 44.147 232.715 44.7479 232.4 45.2805C232.089 45.8089 231.607 46.2287 230.955 46.5398C230.303 46.8466 229.47 47 228.456 47H223.438ZM225.413 45.3061H228.264C229.21 45.3061 229.888 45.1229 230.297 44.7564C230.706 44.3899 230.911 43.9318 230.911 43.3821C230.911 42.9687 230.806 42.5895 230.597 42.2443C230.388 41.8991 230.09 41.6243 229.702 41.4197C229.319 41.2152 228.863 41.1129 228.335 41.1129H225.413V45.3061ZM225.413 39.5724H228.06C228.503 39.5724 228.901 39.4872 229.255 39.3168C229.613 39.1463 229.896 38.9077 230.105 38.6009C230.318 38.2898 230.425 37.9233 230.425 37.5014C230.425 36.9602 230.235 36.5064 229.856 36.1399C229.477 35.7734 228.895 35.5902 228.111 35.5902H225.413V39.5724ZM235.062 47V37.1818H236.973V47H235.062ZM236.027 35.6669C235.695 35.6669 235.409 35.5561 235.171 35.3345C234.936 35.1087 234.819 34.8402 234.819 34.5291C234.819 34.2138 234.936 33.9453 235.171 33.7237C235.409 33.4979 235.695 33.3849 236.027 33.3849C236.36 33.3849 236.643 33.4979 236.877 33.7237C237.116 33.9453 237.235 34.2138 237.235 34.5291C237.235 34.8402 237.116 35.1087 236.877 35.3345C236.643 35.5561 236.36 35.6669 236.027 35.6669ZM241.456 33.9091V47H239.545V33.9091H241.456ZM247.934 33.9091H250.178L253.597 39.8601H253.738L257.158 33.9091H259.401L254.652 41.8608V47H252.683V41.8608L247.934 33.9091ZM263.727 47.1982C262.76 47.1982 261.927 46.9915 261.228 46.5781C260.533 46.1605 259.996 45.5746 259.617 44.8203C259.242 44.0618 259.055 43.1733 259.055 42.1548C259.055 41.1491 259.242 40.2628 259.617 39.4957C259.996 38.7287 260.525 38.13 261.202 37.6996C261.884 37.2692 262.681 37.054 263.593 37.054C264.147 37.054 264.684 37.1456 265.204 37.3288C265.724 37.5121 266.19 37.7997 266.604 38.1918C267.017 38.5838 267.343 39.093 267.582 39.7195C267.82 40.3416 267.94 41.098 267.94 41.9886V42.6662H260.135V41.2344H266.067C266.067 40.7315 265.964 40.2862 265.76 39.8984C265.555 39.5064 265.268 39.1974 264.897 38.9716C264.531 38.7457 264.1 38.6328 263.606 38.6328C263.069 38.6328 262.6 38.7649 262.2 39.0291C261.803 39.2891 261.496 39.63 261.279 40.0518C261.066 40.4695 260.96 40.9233 260.96 41.4134V42.532C260.96 43.1882 261.075 43.7464 261.305 44.2067C261.539 44.6669 261.865 45.0185 262.283 45.2614C262.7 45.5 263.188 45.6193 263.746 45.6193C264.109 45.6193 264.439 45.5682 264.737 45.4659C265.036 45.3594 265.293 45.2017 265.511 44.9929C265.728 44.7841 265.894 44.5263 266.009 44.2195L267.818 44.5455C267.673 45.0781 267.413 45.5447 267.038 45.9453C266.668 46.3416 266.201 46.6506 265.638 46.8722C265.08 47.0895 264.443 47.1982 263.727 47.1982ZM272.917 47.2173C272.295 47.2173 271.733 47.1023 271.23 46.8722C270.727 46.6378 270.329 46.299 270.035 45.8558C269.745 45.4126 269.6 44.8693 269.6 44.2259C269.6 43.6719 269.706 43.2159 269.92 42.858C270.133 42.5 270.42 42.2166 270.782 42.0078C271.145 41.799 271.55 41.6413 271.997 41.5348C272.444 41.4283 272.9 41.3473 273.365 41.2919C273.953 41.2237 274.43 41.1683 274.797 41.1257C275.163 41.0788 275.43 41.0043 275.596 40.902C275.762 40.7997 275.845 40.6335 275.845 40.4034V40.3587C275.845 39.8004 275.687 39.3679 275.372 39.0611C275.061 38.7543 274.596 38.6009 273.979 38.6009C273.335 38.6009 272.828 38.7436 272.457 39.0291C272.091 39.3104 271.837 39.6236 271.697 39.9688L269.9 39.5597C270.113 38.9631 270.425 38.4815 270.834 38.1151C271.247 37.7443 271.722 37.4759 272.259 37.3097C272.796 37.1392 273.361 37.054 273.953 37.054C274.345 37.054 274.76 37.1009 275.199 37.1946C275.643 37.2841 276.056 37.4503 276.439 37.6932C276.827 37.9361 277.145 38.2834 277.392 38.7351C277.639 39.1825 277.763 39.7642 277.763 40.4801V47H275.896V45.6577H275.819C275.696 45.9048 275.51 46.1477 275.263 46.3864C275.016 46.625 274.699 46.8232 274.311 46.9808C273.923 47.1385 273.459 47.2173 272.917 47.2173ZM273.333 45.6832C273.861 45.6832 274.313 45.5788 274.688 45.37C275.067 45.1612 275.355 44.8885 275.551 44.5518C275.751 44.2109 275.851 43.8466 275.851 43.4588V42.1932C275.783 42.2614 275.651 42.3253 275.455 42.3849C275.263 42.4403 275.044 42.4893 274.797 42.532C274.55 42.5703 274.309 42.6065 274.074 42.6406C273.84 42.6705 273.644 42.696 273.486 42.7173C273.116 42.7642 272.777 42.843 272.47 42.9538C272.167 43.0646 271.925 43.2244 271.741 43.4332C271.562 43.6378 271.473 43.9105 271.473 44.2514C271.473 44.7244 271.648 45.0824 271.997 45.3253C272.346 45.5639 272.792 45.6832 273.333 45.6832ZM280.308 47V37.1818H282.156V38.7415H282.258C282.437 38.2131 282.752 37.7976 283.204 37.495C283.66 37.1882 284.175 37.0348 284.751 37.0348C284.87 37.0348 285.011 37.0391 285.173 37.0476C285.339 37.0561 285.469 37.0668 285.562 37.0795V38.9077C285.486 38.8864 285.349 38.8629 285.153 38.8374C284.957 38.8075 284.761 38.7926 284.565 38.7926C284.114 38.7926 283.711 38.8885 283.357 39.0803C283.008 39.2678 282.731 39.5298 282.526 39.8665C282.322 40.1989 282.219 40.5781 282.219 41.0043V47H280.308ZM289.128 33.9091V47H287.216V33.9091H289.128ZM292.907 50.6818C292.621 50.6818 292.362 50.6584 292.127 50.6115C291.893 50.5689 291.718 50.522 291.603 50.4709L292.063 48.9048C292.413 48.9986 292.724 49.0391 292.996 49.0263C293.269 49.0135 293.51 48.9112 293.719 48.7195C293.932 48.5277 294.119 48.2145 294.281 47.7798L294.518 47.1278L290.925 37.1818H292.971L295.457 44.8011H295.56L298.046 37.1818H300.098L296.052 48.3104C295.864 48.8217 295.626 49.2543 295.336 49.608C295.046 49.9659 294.701 50.2344 294.3 50.4134C293.9 50.5923 293.435 50.6818 292.907 50.6818Z" fill="white"/>
<defs>
<filter id="filter0_d_0_238" x="0" y="0" width="358" height="88" filterUnits="userSpaceOnUse" color-interpolation-filters="sRGB">
<feFlood flood-opacity="0" result="BackgroundImageFix"/>
<feColorMatrix in="SourceAlpha" type="matrix" values="0 0 0 0 0 0 0 0 0 0 0 0 0 0 0 0 0 0 127 0" result="hardAlpha"/>
<feOffset dy="4"/>
<feGaussianBlur stdDeviation="4.5"/>
<feComposite in2="hardAlpha" operator="out"/>
<feColorMatrix type="matrix" values="0 0 0 0 0 0 0 0 0 0 0 0 0 0 0 0 0 0 0.05 0"/>
<feBlend mode="normal" in2="BackgroundImageFix" result="effect1_dropShadow_0_238"/>
<feBlend mode="normal" in="SourceGraphic" in2="effect1_dropShadow_0_238" result="shape"/>
</filter>
</defs>
</svg>
