<svg width="68" height="68" viewBox="0 0 68 68" fill="none" xmlns="http://www.w3.org/2000/svg" xmlns:xlink="http://www.w3.org/1999/xlink">
<path d="M34,3.833C50.658,3.833 64.167,17.339 64.167,34L67.167,34C67.167,15.682 52.315,0.833 34,0.833L34,3.833ZM64.167,34C64.167,50.661 50.658,64.167 34,64.167L34,67.167C52.315,67.167 67.167,52.318 67.167,34L64.167,34ZM34,64.167C17.339,64.167 3.833,50.661 3.833,34L0.833,34C0.833,52.318 15.682,67.167 34,67.167L34,64.167ZM3.833,34C3.833,17.339 17.339,3.833 34,3.833L34,0.833C15.682,0.833 0.833,15.682 0.833,34L3.833,34Z" fill="#191A15"/>
<path d="M28.57,43.782L29.626,42.717L29.624,42.715L28.57,43.782ZM45.5,33.984C45.5,33.106 44.992,32.326 44.586,31.803C44.124,31.207 43.499,30.583 42.802,29.968C41.4,28.733 39.549,27.399 37.674,26.218C35.801,25.039 33.844,23.973 32.222,23.296C31.419,22.961 30.632,22.693 29.943,22.572C29.601,22.512 29.215,22.476 28.832,22.519C28.456,22.562 27.939,22.7 27.515,23.119L29.625,25.252C29.397,25.477 29.173,25.5 29.172,25.5C29.164,25.501 29.238,25.494 29.425,25.527C29.795,25.592 30.348,25.765 31.066,26.065C32.484,26.656 34.287,27.631 36.075,28.757C37.861,29.882 39.572,31.121 40.818,32.219C41.445,32.771 41.915,33.254 42.216,33.642C42.575,34.104 42.5,34.186 42.5,33.984L45.5,33.984ZM27.515,23.119C27.212,23.418 27.028,23.782 26.91,24.058C26.783,24.358 26.68,24.694 26.593,25.037C26.42,25.725 26.282,26.569 26.174,27.49C25.958,29.338 25.844,31.639 25.834,33.923C25.824,36.206 25.919,38.518 26.131,40.39C26.237,41.322 26.376,42.182 26.558,42.889C26.649,43.242 26.758,43.588 26.894,43.898C27.021,44.191 27.214,44.551 27.516,44.849L29.624,42.715C29.71,42.8 29.702,42.833 29.643,42.699C29.592,42.582 29.53,42.4 29.463,42.141C29.33,41.623 29.21,40.915 29.112,40.052C28.917,38.332 28.825,36.144 28.834,33.935C28.843,31.727 28.954,29.545 29.154,27.839C29.254,26.982 29.373,26.282 29.502,25.772C29.567,25.516 29.626,25.339 29.673,25.228C29.73,25.094 29.73,25.147 29.625,25.252L27.515,23.119ZM27.514,44.847C27.921,45.251 28.414,45.409 28.809,45.467C29.203,45.525 29.599,45.499 29.954,45.445C30.664,45.336 31.467,45.072 32.278,44.739C33.916,44.066 35.873,42.992 37.738,41.802C39.606,40.609 41.444,39.26 42.834,38.011C43.525,37.39 44.143,36.761 44.601,36.16C45.002,35.633 45.5,34.854 45.5,33.984L42.5,33.984C42.5,33.789 42.569,33.877 42.215,34.342C41.916,34.734 41.449,35.222 40.829,35.78C39.595,36.889 37.898,38.14 36.124,39.273C34.347,40.407 32.554,41.382 31.138,41.964C30.421,42.259 29.87,42.423 29.501,42.479C29.316,42.508 29.241,42.498 29.245,42.499C29.249,42.5 29.434,42.527 29.626,42.717L27.514,44.847Z" fill="#191A15"/>
</svg>
